<?xml version="1.0" standalone="no"?>
<!DOCTYPE svg PUBLIC "-//W3C//DTD SVG 20010904//EN"
 "http://www.w3.org/TR/2001/REC-SVG-20010904/DTD/svg10.dtd">
<svg version="1.0" xmlns="http://www.w3.org/2000/svg"
 width="266.000000pt" height="142.000000pt" viewBox="0 0 266.000000 142.000000"
 preserveAspectRatio="xMidYMid meet">

<g transform="translate(0.000000,142.000000) scale(0.100000,-0.100000)"
fill="#000000" stroke="none">
<path d="M1872 1102 c-12 -2 -30 -15 -40 -30 -15 -24 -17 -63 -17 -395 l0
-369 28 -24 c35 -30 68 -31 103 -1 26 23 28 29 32 138 l4 114 42 43 c22 24 53
52 67 63 l26 18 104 -161 c57 -89 120 -179 140 -200 45 -47 87 -51 126 -12 44
44 38 59 -160 343 l-100 145 111 105 c62 58 116 118 121 132 12 33 -5 70 -42
87 -44 21 -78 -4 -257 -192 -91 -96 -168 -174 -172 -175 -5 -1 -8 63 -9 142 0
165 -10 206 -54 222 -16 6 -40 9 -53 7z"/>
<path d="M332 1080 c-12 -5 -27 -21 -32 -35 -14 -37 -13 -693 1 -733 20 -58
102 -67 136 -15 15 22 19 55 21 180 l4 153 36 0 c104 0 149 -39 257 -223 69
-117 98 -147 143 -147 30 0 72 38 72 65 0 45 -81 185 -147 252 -35 36 -63 67
-63 69 0 1 17 8 38 15 119 39 176 136 151 258 -16 78 -80 143 -157 160 -63 13
-427 14 -460 1z m429 -148 c23 -25 29 -42 29 -76 0 -85 -64 -116 -240 -116
l-90 0 0 116 0 116 136 -4 136 -3 29 -33z"/>
<path d="M1147 1070 l-27 -21 0 -370 0 -370 25 -24 c26 -27 51 -31 89 -14 37
17 46 58 46 215 l0 144 139 0 c153 0 186 7 203 44 9 20 8 30 -6 50 -16 25 -18
26 -174 28 l-157 3 -3 108 -3 107 184 0 c165 0 186 2 200 18 19 20 22 59 7 82
-8 13 -49 15 -253 18 -235 3 -244 2 -270 -18z"/>
</g>
</svg>
